<mxfile host="app.diagrams.net" agent="Mozilla/5.0 (Windows NT 10.0; Win64; x64) AppleWebKit/537.36 (KHTML, like Gecko) Chrome/127.0.0.0 Safari/537.36" version="24.7.6">
  <diagram name="第 1 页" id="LoVdSpaz20xGBIXguYWv">
    <mxGraphModel dx="1728" dy="915" grid="1" gridSize="10" guides="1" tooltips="1" connect="1" arrows="1" fold="1" page="1" pageScale="1" pageWidth="827" pageHeight="1169" math="0" shadow="0">
      <root>
        <mxCell id="0" />
        <mxCell id="1" parent="0" />
        <mxCell id="MTlcmfKueNscHB39uHmk-1" value="FormDetail" style="html=1;whiteSpace=wrap;align=left;" parent="1" vertex="1">
          <mxGeometry x="190" y="250" width="200" height="350" as="geometry" />
        </mxCell>
        <mxCell id="MTlcmfKueNscHB39uHmk-3" value="FormContainer" style="html=1;whiteSpace=wrap;align=center;" parent="1" vertex="1">
          <mxGeometry x="270" y="270" width="90" height="310" as="geometry" />
        </mxCell>
        <mxCell id="MTlcmfKueNscHB39uHmk-4" value="PageRender" style="html=1;whiteSpace=wrap;align=center;" parent="1" vertex="1">
          <mxGeometry x="450" y="270" width="90" height="310" as="geometry" />
        </mxCell>
        <mxCell id="MTlcmfKueNscHB39uHmk-5" value="实现表单功能" style="text;html=1;align=center;verticalAlign=middle;whiteSpace=wrap;rounded=0;" parent="1" vertex="1">
          <mxGeometry x="190" y="460" width="60" height="30" as="geometry" />
        </mxCell>
        <mxCell id="MTlcmfKueNscHB39uHmk-6" value="表单初始化，渲染表单外壳" style="text;html=1;align=center;verticalAlign=middle;whiteSpace=wrap;rounded=0;" parent="1" vertex="1">
          <mxGeometry x="275" y="450" width="80" height="30" as="geometry" />
        </mxCell>
        <mxCell id="MTlcmfKueNscHB39uHmk-7" value="" style="endArrow=diamondThin;endFill=1;endSize=24;html=1;rounded=0;exitX=0;exitY=0.5;exitDx=0;exitDy=0;entryX=1;entryY=0.5;entryDx=0;entryDy=0;" parent="1" source="MTlcmfKueNscHB39uHmk-4" target="MTlcmfKueNscHB39uHmk-3" edge="1">
          <mxGeometry width="160" relative="1" as="geometry">
            <mxPoint x="270" y="860" as="sourcePoint" />
            <mxPoint x="430" y="860" as="targetPoint" />
          </mxGeometry>
        </mxCell>
        <mxCell id="MTlcmfKueNscHB39uHmk-8" value="渲染具体页面内容，表单项，解析schema" style="text;html=1;align=center;verticalAlign=middle;whiteSpace=wrap;rounded=0;" parent="1" vertex="1">
          <mxGeometry x="450" y="450" width="90" height="30" as="geometry" />
        </mxCell>
        <mxCell id="MTlcmfKueNscHB39uHmk-10" value="表单初始化" style="swimlane;fontStyle=0;childLayout=stackLayout;horizontal=1;startSize=26;horizontalStack=0;resizeParent=1;resizeParentMax=0;resizeLast=0;collapsible=1;marginBottom=0;align=center;fontSize=14;fixedWidth=0;resizeHeight=1;" parent="1" vertex="1">
          <mxGeometry x="620" y="250" width="195" height="176" as="geometry">
            <mxRectangle x="195" y="640" width="110" height="30" as="alternateBounds" />
          </mxGeometry>
        </mxCell>
        <mxCell id="MTlcmfKueNscHB39uHmk-11" value="解析schema" style="text;strokeColor=none;fillColor=none;spacingLeft=4;spacingRight=4;overflow=hidden;rotatable=0;points=[[0,0.5],[1,0.5]];portConstraint=eastwest;fontSize=12;whiteSpace=wrap;html=1;" parent="MTlcmfKueNscHB39uHmk-10" vertex="1">
          <mxGeometry y="26" width="195" height="30" as="geometry" />
        </mxCell>
        <mxCell id="MTlcmfKueNscHB39uHmk-12" value="拉接口判断是否为计算表单" style="text;strokeColor=none;fillColor=none;spacingLeft=4;spacingRight=4;overflow=hidden;rotatable=0;points=[[0,0.5],[1,0.5]];portConstraint=eastwest;fontSize=12;whiteSpace=wrap;html=1;" parent="MTlcmfKueNscHB39uHmk-10" vertex="1">
          <mxGeometry y="56" width="195" height="30" as="geometry" />
        </mxCell>
        <mxCell id="MTlcmfKueNscHB39uHmk-13" value="拉接口获取表单默认值" style="text;strokeColor=none;fillColor=none;spacingLeft=4;spacingRight=4;overflow=hidden;rotatable=0;points=[[0,0.5],[1,0.5]];portConstraint=eastwest;fontSize=12;whiteSpace=wrap;html=1;" parent="MTlcmfKueNscHB39uHmk-10" vertex="1">
          <mxGeometry y="86" width="195" height="30" as="geometry" />
        </mxCell>
        <mxCell id="MTlcmfKueNscHB39uHmk-14" value="设置表单默认值" style="text;strokeColor=none;fillColor=none;spacingLeft=4;spacingRight=4;overflow=hidden;rotatable=0;points=[[0,0.5],[1,0.5]];portConstraint=eastwest;fontSize=12;whiteSpace=wrap;html=1;" parent="MTlcmfKueNscHB39uHmk-10" vertex="1">
          <mxGeometry y="116" width="195" height="30" as="geometry" />
        </mxCell>
        <mxCell id="MTlcmfKueNscHB39uHmk-15" value="当actionEngine和数据源就绪时，调用JS面板中的onFormReady方法" style="text;strokeColor=none;fillColor=none;spacingLeft=4;spacingRight=4;overflow=visible;rotatable=0;points=[[0,0.5],[1,0.5]];portConstraint=eastwest;fontSize=12;whiteSpace=wrap;html=1;" parent="MTlcmfKueNscHB39uHmk-10" vertex="1">
          <mxGeometry y="146" width="195" height="30" as="geometry" />
        </mxCell>
        <mxCell id="MTlcmfKueNscHB39uHmk-18" value="PageRenderer作用" style="swimlane;fontStyle=0;childLayout=stackLayout;horizontal=1;startSize=26;horizontalStack=0;resizeParent=1;resizeParentMax=0;resizeLast=0;collapsible=1;marginBottom=0;align=center;fontSize=14;" parent="1" vertex="1">
          <mxGeometry x="620" y="460" width="160" height="146" as="geometry" />
        </mxCell>
        <mxCell id="MTlcmfKueNscHB39uHmk-19" value="加载数据源dataSource" style="text;strokeColor=none;fillColor=none;spacingLeft=4;spacingRight=4;overflow=hidden;rotatable=0;points=[[0,0.5],[1,0.5]];portConstraint=eastwest;fontSize=12;whiteSpace=wrap;html=1;" parent="MTlcmfKueNscHB39uHmk-18" vertex="1">
          <mxGeometry y="26" width="160" height="30" as="geometry" />
        </mxCell>
        <mxCell id="MTlcmfKueNscHB39uHmk-20" value="加载动作引擎actionEngine" style="text;strokeColor=none;fillColor=none;spacingLeft=4;spacingRight=4;overflow=hidden;rotatable=0;points=[[0,0.5],[1,0.5]];portConstraint=eastwest;fontSize=12;whiteSpace=wrap;html=1;" parent="MTlcmfKueNscHB39uHmk-18" vertex="1">
          <mxGeometry y="56" width="160" height="30" as="geometry" />
        </mxCell>
        <mxCell id="MTlcmfKueNscHB39uHmk-21" value="通知表单组件以上两部分加载完成" style="text;strokeColor=none;fillColor=none;spacingLeft=4;spacingRight=4;overflow=hidden;rotatable=0;points=[[0,0.5],[1,0.5]];portConstraint=eastwest;fontSize=12;whiteSpace=wrap;html=1;" parent="MTlcmfKueNscHB39uHmk-18" vertex="1">
          <mxGeometry y="86" width="160" height="30" as="geometry" />
        </mxCell>
        <mxCell id="MTlcmfKueNscHB39uHmk-22" value="监听schema修改事件，重新解析schema，渲染页面内容" style="text;strokeColor=none;fillColor=none;spacingLeft=4;spacingRight=4;overflow=visible;rotatable=0;points=[[0,0.5],[1,0.5]];portConstraint=eastwest;fontSize=12;whiteSpace=wrap;html=1;" parent="MTlcmfKueNscHB39uHmk-18" vertex="1">
          <mxGeometry y="116" width="160" height="30" as="geometry" />
        </mxCell>
        <mxCell id="aeAs8SqdMSBDvHF7y7z5-1" value="FormContainer" style="swimlane;fontStyle=1;align=center;verticalAlign=top;childLayout=stackLayout;horizontal=1;startSize=26;horizontalStack=0;resizeParent=1;resizeLast=0;collapsible=1;marginBottom=0;rounded=0;shadow=0;strokeWidth=1;" parent="1" vertex="1">
          <mxGeometry x="500" y="670" width="160" height="310" as="geometry">
            <mxRectangle x="230" y="140" width="160" height="26" as="alternateBounds" />
          </mxGeometry>
        </mxCell>
        <mxCell id="aeAs8SqdMSBDvHF7y7z5-2" value="children" style="text;align=left;verticalAlign=top;spacingLeft=4;spacingRight=4;overflow=hidden;rotatable=0;points=[[0,0.5],[1,0.5]];portConstraint=eastwest;" parent="aeAs8SqdMSBDvHF7y7z5-1" vertex="1">
          <mxGeometry y="26" width="160" height="26" as="geometry" />
        </mxCell>
        <mxCell id="aeAs8SqdMSBDvHF7y7z5-3" value="className" style="text;align=left;verticalAlign=top;spacingLeft=4;spacingRight=4;overflow=hidden;rotatable=0;points=[[0,0.5],[1,0.5]];portConstraint=eastwest;rounded=0;shadow=0;html=0;" parent="aeAs8SqdMSBDvHF7y7z5-1" vertex="1">
          <mxGeometry y="52" width="160" height="26" as="geometry" />
        </mxCell>
        <mxCell id="aeAs8SqdMSBDvHF7y7z5-4" value="schema" style="text;align=left;verticalAlign=top;spacingLeft=4;spacingRight=4;overflow=hidden;rotatable=0;points=[[0,0.5],[1,0.5]];portConstraint=eastwest;rounded=0;shadow=0;html=0;" parent="aeAs8SqdMSBDvHF7y7z5-1" vertex="1">
          <mxGeometry y="78" width="160" height="26" as="geometry" />
        </mxCell>
        <mxCell id="aeAs8SqdMSBDvHF7y7z5-5" value="initialValues" style="text;align=left;verticalAlign=top;spacingLeft=4;spacingRight=4;overflow=hidden;rotatable=0;points=[[0,0.5],[1,0.5]];portConstraint=eastwest;rounded=0;shadow=0;html=0;" parent="aeAs8SqdMSBDvHF7y7z5-1" vertex="1">
          <mxGeometry y="104" width="160" height="26" as="geometry" />
        </mxCell>
        <mxCell id="aeAs8SqdMSBDvHF7y7z5-6" value="showStaticValue" style="text;align=left;verticalAlign=top;spacingLeft=4;spacingRight=4;overflow=hidden;rotatable=0;points=[[0,0.5],[1,0.5]];portConstraint=eastwest;rounded=0;shadow=0;html=0;" parent="aeAs8SqdMSBDvHF7y7z5-1" vertex="1">
          <mxGeometry y="130" width="160" height="26" as="geometry" />
        </mxCell>
        <mxCell id="aeAs8SqdMSBDvHF7y7z5-7" value="formConfig" style="text;align=left;verticalAlign=top;spacingLeft=4;spacingRight=4;overflow=hidden;rotatable=0;points=[[0,0.5],[1,0.5]];portConstraint=eastwest;rounded=0;shadow=0;html=0;" parent="aeAs8SqdMSBDvHF7y7z5-1" vertex="1">
          <mxGeometry y="156" width="160" height="26" as="geometry" />
        </mxCell>
        <mxCell id="aeAs8SqdMSBDvHF7y7z5-8" value="instId" style="text;align=left;verticalAlign=top;spacingLeft=4;spacingRight=4;overflow=hidden;rotatable=0;points=[[0,0.5],[1,0.5]];portConstraint=eastwest;rounded=0;shadow=0;html=0;" parent="aeAs8SqdMSBDvHF7y7z5-1" vertex="1">
          <mxGeometry y="182" width="160" height="26" as="geometry" />
        </mxCell>
        <mxCell id="aeAs8SqdMSBDvHF7y7z5-9" value="" style="line;html=1;strokeWidth=1;align=left;verticalAlign=middle;spacingTop=-1;spacingLeft=3;spacingRight=3;rotatable=0;labelPosition=right;points=[];portConstraint=eastwest;" parent="aeAs8SqdMSBDvHF7y7z5-1" vertex="1">
          <mxGeometry y="208" width="160" height="16" as="geometry" />
        </mxCell>
        <mxCell id="aeAs8SqdMSBDvHF7y7z5-10" value="onSubmit()" style="text;align=left;verticalAlign=top;spacingLeft=4;spacingRight=4;overflow=hidden;rotatable=0;points=[[0,0.5],[1,0.5]];portConstraint=eastwest;rounded=0;shadow=0;html=0;" parent="aeAs8SqdMSBDvHF7y7z5-1" vertex="1">
          <mxGeometry y="224" width="160" height="26" as="geometry" />
        </mxCell>
        <mxCell id="aeAs8SqdMSBDvHF7y7z5-11" value="onStaging()" style="text;align=left;verticalAlign=top;spacingLeft=4;spacingRight=4;overflow=hidden;rotatable=0;points=[[0,0.5],[1,0.5]];portConstraint=eastwest;rounded=0;shadow=0;html=0;" parent="aeAs8SqdMSBDvHF7y7z5-1" vertex="1">
          <mxGeometry y="250" width="160" height="26" as="geometry" />
        </mxCell>
        <mxCell id="aeAs8SqdMSBDvHF7y7z5-12" value="onFormFieldChange()" style="text;align=left;verticalAlign=top;spacingLeft=4;spacingRight=4;overflow=hidden;rotatable=0;points=[[0,0.5],[1,0.5]];portConstraint=eastwest;rounded=0;shadow=0;html=0;" parent="aeAs8SqdMSBDvHF7y7z5-1" vertex="1">
          <mxGeometry y="276" width="160" height="26" as="geometry" />
        </mxCell>
        <mxCell id="aeAs8SqdMSBDvHF7y7z5-13" value="PageRenderer" style="swimlane;fontStyle=1;align=center;verticalAlign=top;childLayout=stackLayout;horizontal=1;startSize=26;horizontalStack=0;resizeParent=1;resizeParentMax=0;resizeLast=0;collapsible=1;marginBottom=0;whiteSpace=wrap;html=1;" parent="1" vertex="1">
          <mxGeometry x="800" y="670" width="160" height="216" as="geometry" />
        </mxCell>
        <mxCell id="aeAs8SqdMSBDvHF7y7z5-14" value="componentsMap" style="text;strokeColor=none;fillColor=none;align=left;verticalAlign=top;spacingLeft=4;spacingRight=4;overflow=hidden;rotatable=0;points=[[0,0.5],[1,0.5]];portConstraint=eastwest;whiteSpace=wrap;html=1;" parent="aeAs8SqdMSBDvHF7y7z5-13" vertex="1">
          <mxGeometry y="26" width="160" height="26" as="geometry" />
        </mxCell>
        <mxCell id="aeAs8SqdMSBDvHF7y7z5-15" value="className" style="text;strokeColor=none;fillColor=none;align=left;verticalAlign=top;spacingLeft=4;spacingRight=4;overflow=hidden;rotatable=0;points=[[0,0.5],[1,0.5]];portConstraint=eastwest;whiteSpace=wrap;html=1;" parent="aeAs8SqdMSBDvHF7y7z5-13" vertex="1">
          <mxGeometry y="52" width="160" height="26" as="geometry" />
        </mxCell>
        <mxCell id="aeAs8SqdMSBDvHF7y7z5-16" value="style" style="text;strokeColor=none;fillColor=none;align=left;verticalAlign=top;spacingLeft=4;spacingRight=4;overflow=hidden;rotatable=0;points=[[0,0.5],[1,0.5]];portConstraint=eastwest;whiteSpace=wrap;html=1;" parent="aeAs8SqdMSBDvHF7y7z5-13" vertex="1">
          <mxGeometry y="78" width="160" height="26" as="geometry" />
        </mxCell>
        <mxCell id="aeAs8SqdMSBDvHF7y7z5-17" value="schema" style="text;strokeColor=none;fillColor=none;align=left;verticalAlign=top;spacingLeft=4;spacingRight=4;overflow=hidden;rotatable=0;points=[[0,0.5],[1,0.5]];portConstraint=eastwest;whiteSpace=wrap;html=1;" parent="aeAs8SqdMSBDvHF7y7z5-13" vertex="1">
          <mxGeometry y="104" width="160" height="26" as="geometry" />
        </mxCell>
        <mxCell id="aeAs8SqdMSBDvHF7y7z5-18" value="componentHelper" style="text;strokeColor=none;fillColor=none;align=left;verticalAlign=top;spacingLeft=4;spacingRight=4;overflow=hidden;rotatable=0;points=[[0,0.5],[1,0.5]];portConstraint=eastwest;whiteSpace=wrap;html=1;" parent="aeAs8SqdMSBDvHF7y7z5-13" vertex="1">
          <mxGeometry y="130" width="160" height="26" as="geometry" />
        </mxCell>
        <mxCell id="aeAs8SqdMSBDvHF7y7z5-19" value="" style="line;strokeWidth=1;fillColor=none;align=left;verticalAlign=middle;spacingTop=-1;spacingLeft=3;spacingRight=3;rotatable=0;labelPosition=right;points=[];portConstraint=eastwest;strokeColor=inherit;" parent="aeAs8SqdMSBDvHF7y7z5-13" vertex="1">
          <mxGeometry y="156" width="160" height="8" as="geometry" />
        </mxCell>
        <mxCell id="aeAs8SqdMSBDvHF7y7z5-20" value="onPageMounted()" style="text;strokeColor=none;fillColor=none;align=left;verticalAlign=top;spacingLeft=4;spacingRight=4;overflow=hidden;rotatable=0;points=[[0,0.5],[1,0.5]];portConstraint=eastwest;whiteSpace=wrap;html=1;" parent="aeAs8SqdMSBDvHF7y7z5-13" vertex="1">
          <mxGeometry y="164" width="160" height="26" as="geometry" />
        </mxCell>
        <mxCell id="aeAs8SqdMSBDvHF7y7z5-21" value="onPageUnmounted()" style="text;strokeColor=none;fillColor=none;align=left;verticalAlign=top;spacingLeft=4;spacingRight=4;overflow=hidden;rotatable=0;points=[[0,0.5],[1,0.5]];portConstraint=eastwest;whiteSpace=wrap;html=1;" parent="aeAs8SqdMSBDvHF7y7z5-13" vertex="1">
          <mxGeometry y="190" width="160" height="26" as="geometry" />
        </mxCell>
        <mxCell id="aeAs8SqdMSBDvHF7y7z5-22" value="" style="endArrow=diamondThin;endFill=1;endSize=24;html=1;rounded=0;entryX=1;entryY=0.5;entryDx=0;entryDy=0;" parent="1" target="aeAs8SqdMSBDvHF7y7z5-7" edge="1">
          <mxGeometry width="160" relative="1" as="geometry">
            <mxPoint x="800" y="839" as="sourcePoint" />
            <mxPoint x="830" y="1020" as="targetPoint" />
          </mxGeometry>
        </mxCell>
        <mxCell id="aeAs8SqdMSBDvHF7y7z5-23" value="FormDetail" style="swimlane;fontStyle=1;align=center;verticalAlign=top;childLayout=stackLayout;horizontal=1;startSize=26;horizontalStack=0;resizeParent=1;resizeParentMax=0;resizeLast=0;collapsible=1;marginBottom=0;whiteSpace=wrap;html=1;" parent="1" vertex="1">
          <mxGeometry x="190" y="670" width="160" height="632" as="geometry" />
        </mxCell>
        <mxCell id="aeAs8SqdMSBDvHF7y7z5-24" value="appId" style="text;strokeColor=none;fillColor=none;align=left;verticalAlign=top;spacingLeft=4;spacingRight=4;overflow=hidden;rotatable=0;points=[[0,0.5],[1,0.5]];portConstraint=eastwest;whiteSpace=wrap;html=1;" parent="aeAs8SqdMSBDvHF7y7z5-23" vertex="1">
          <mxGeometry y="26" width="160" height="26" as="geometry" />
        </mxCell>
        <mxCell id="aeAs8SqdMSBDvHF7y7z5-25" value="formId" style="text;strokeColor=none;fillColor=none;align=left;verticalAlign=top;spacingLeft=4;spacingRight=4;overflow=hidden;rotatable=0;points=[[0,0.5],[1,0.5]];portConstraint=eastwest;whiteSpace=wrap;html=1;" parent="aeAs8SqdMSBDvHF7y7z5-23" vertex="1">
          <mxGeometry y="52" width="160" height="26" as="geometry" />
        </mxCell>
        <mxCell id="aeAs8SqdMSBDvHF7y7z5-26" value="pageId" style="text;strokeColor=none;fillColor=none;align=left;verticalAlign=top;spacingLeft=4;spacingRight=4;overflow=hidden;rotatable=0;points=[[0,0.5],[1,0.5]];portConstraint=eastwest;whiteSpace=wrap;html=1;" parent="aeAs8SqdMSBDvHF7y7z5-23" vertex="1">
          <mxGeometry y="78" width="160" height="26" as="geometry" />
        </mxCell>
        <mxCell id="aeAs8SqdMSBDvHF7y7z5-27" value="instId" style="text;strokeColor=none;fillColor=none;align=left;verticalAlign=top;spacingLeft=4;spacingRight=4;overflow=hidden;rotatable=0;points=[[0,0.5],[1,0.5]];portConstraint=eastwest;whiteSpace=wrap;html=1;" parent="aeAs8SqdMSBDvHF7y7z5-23" vertex="1">
          <mxGeometry y="104" width="160" height="26" as="geometry" />
        </mxCell>
        <mxCell id="aeAs8SqdMSBDvHF7y7z5-28" value="reminder" style="text;strokeColor=none;fillColor=none;align=left;verticalAlign=top;spacingLeft=4;spacingRight=4;overflow=hidden;rotatable=0;points=[[0,0.5],[1,0.5]];portConstraint=eastwest;whiteSpace=wrap;html=1;" parent="aeAs8SqdMSBDvHF7y7z5-23" vertex="1">
          <mxGeometry y="130" width="160" height="26" as="geometry" />
        </mxCell>
        <mxCell id="aeAs8SqdMSBDvHF7y7z5-29" value="permitSceneParams" style="text;strokeColor=none;fillColor=none;align=left;verticalAlign=top;spacingLeft=4;spacingRight=4;overflow=hidden;rotatable=0;points=[[0,0.5],[1,0.5]];portConstraint=eastwest;whiteSpace=wrap;html=1;" parent="aeAs8SqdMSBDvHF7y7z5-23" vertex="1">
          <mxGeometry y="156" width="160" height="26" as="geometry" />
        </mxCell>
        <mxCell id="aeAs8SqdMSBDvHF7y7z5-30" value="style" style="text;strokeColor=none;fillColor=none;align=left;verticalAlign=top;spacingLeft=4;spacingRight=4;overflow=hidden;rotatable=0;points=[[0,0.5],[1,0.5]];portConstraint=eastwest;whiteSpace=wrap;html=1;" parent="aeAs8SqdMSBDvHF7y7z5-23" vertex="1">
          <mxGeometry y="182" width="160" height="26" as="geometry" />
        </mxCell>
        <mxCell id="aeAs8SqdMSBDvHF7y7z5-31" value="alloGetNextTask" style="text;strokeColor=none;fillColor=none;align=left;verticalAlign=top;spacingLeft=4;spacingRight=4;overflow=hidden;rotatable=0;points=[[0,0.5],[1,0.5]];portConstraint=eastwest;whiteSpace=wrap;html=1;" parent="aeAs8SqdMSBDvHF7y7z5-23" vertex="1">
          <mxGeometry y="208" width="160" height="26" as="geometry" />
        </mxCell>
        <mxCell id="aeAs8SqdMSBDvHF7y7z5-32" value="nextTaskUsage" style="text;strokeColor=none;fillColor=none;align=left;verticalAlign=top;spacingLeft=4;spacingRight=4;overflow=hidden;rotatable=0;points=[[0,0.5],[1,0.5]];portConstraint=eastwest;whiteSpace=wrap;html=1;" parent="aeAs8SqdMSBDvHF7y7z5-23" vertex="1">
          <mxGeometry y="234" width="160" height="26" as="geometry" />
        </mxCell>
        <mxCell id="aeAs8SqdMSBDvHF7y7z5-33" value="updateFormInfo" style="text;strokeColor=none;fillColor=none;align=left;verticalAlign=top;spacingLeft=4;spacingRight=4;overflow=hidden;rotatable=0;points=[[0,0.5],[1,0.5]];portConstraint=eastwest;whiteSpace=wrap;html=1;" parent="aeAs8SqdMSBDvHF7y7z5-23" vertex="1">
          <mxGeometry y="260" width="160" height="26" as="geometry" />
        </mxCell>
        <mxCell id="aeAs8SqdMSBDvHF7y7z5-34" value="" style="line;strokeWidth=1;fillColor=none;align=left;verticalAlign=middle;spacingTop=-1;spacingLeft=3;spacingRight=3;rotatable=0;labelPosition=right;points=[];portConstraint=eastwest;strokeColor=inherit;" parent="aeAs8SqdMSBDvHF7y7z5-23" vertex="1">
          <mxGeometry y="286" width="160" height="8" as="geometry" />
        </mxCell>
        <mxCell id="aeAs8SqdMSBDvHF7y7z5-35" value="onCancel()" style="text;strokeColor=none;fillColor=none;align=left;verticalAlign=top;spacingLeft=4;spacingRight=4;overflow=hidden;rotatable=0;points=[[0,0.5],[1,0.5]];portConstraint=eastwest;whiteSpace=wrap;html=1;" parent="aeAs8SqdMSBDvHF7y7z5-23" vertex="1">
          <mxGeometry y="294" width="160" height="26" as="geometry" />
        </mxCell>
        <mxCell id="aeAs8SqdMSBDvHF7y7z5-36" value="onClose()" style="text;strokeColor=none;fillColor=none;align=left;verticalAlign=top;spacingLeft=4;spacingRight=4;overflow=hidden;rotatable=0;points=[[0,0.5],[1,0.5]];portConstraint=eastwest;whiteSpace=wrap;html=1;" parent="aeAs8SqdMSBDvHF7y7z5-23" vertex="1">
          <mxGeometry y="320" width="160" height="26" as="geometry" />
        </mxCell>
        <mxCell id="aeAs8SqdMSBDvHF7y7z5-37" value="onActionCallBack()" style="text;strokeColor=none;fillColor=none;align=left;verticalAlign=top;spacingLeft=4;spacingRight=4;overflow=hidden;rotatable=0;points=[[0,0.5],[1,0.5]];portConstraint=eastwest;whiteSpace=wrap;html=1;" parent="aeAs8SqdMSBDvHF7y7z5-23" vertex="1">
          <mxGeometry y="346" width="160" height="26" as="geometry" />
        </mxCell>
        <mxCell id="aeAs8SqdMSBDvHF7y7z5-38" value="onNextTask()" style="text;strokeColor=none;fillColor=none;align=left;verticalAlign=top;spacingLeft=4;spacingRight=4;overflow=hidden;rotatable=0;points=[[0,0.5],[1,0.5]];portConstraint=eastwest;whiteSpace=wrap;html=1;" parent="aeAs8SqdMSBDvHF7y7z5-23" vertex="1">
          <mxGeometry y="372" width="160" height="26" as="geometry" />
        </mxCell>
        <mxCell id="aeAs8SqdMSBDvHF7y7z5-39" value="deleteInst()" style="text;strokeColor=none;fillColor=none;align=left;verticalAlign=top;spacingLeft=4;spacingRight=4;overflow=hidden;rotatable=0;points=[[0,0.5],[1,0.5]];portConstraint=eastwest;whiteSpace=wrap;html=1;" parent="aeAs8SqdMSBDvHF7y7z5-23" vertex="1">
          <mxGeometry y="398" width="160" height="26" as="geometry" />
        </mxCell>
        <mxCell id="aeAs8SqdMSBDvHF7y7z5-40" value="validateFormData()" style="text;strokeColor=none;fillColor=none;align=left;verticalAlign=top;spacingLeft=4;spacingRight=4;overflow=hidden;rotatable=0;points=[[0,0.5],[1,0.5]];portConstraint=eastwest;whiteSpace=wrap;html=1;" parent="aeAs8SqdMSBDvHF7y7z5-23" vertex="1">
          <mxGeometry y="424" width="160" height="26" as="geometry" />
        </mxCell>
        <mxCell id="aeAs8SqdMSBDvHF7y7z5-41" value="submitFormData()" style="text;strokeColor=none;fillColor=none;align=left;verticalAlign=top;spacingLeft=4;spacingRight=4;overflow=hidden;rotatable=0;points=[[0,0.5],[1,0.5]];portConstraint=eastwest;whiteSpace=wrap;html=1;" parent="aeAs8SqdMSBDvHF7y7z5-23" vertex="1">
          <mxGeometry y="450" width="160" height="26" as="geometry" />
        </mxCell>
        <mxCell id="aeAs8SqdMSBDvHF7y7z5-42" value="saveStagingFormData()" style="text;strokeColor=none;fillColor=none;align=left;verticalAlign=top;spacingLeft=4;spacingRight=4;overflow=hidden;rotatable=0;points=[[0,0.5],[1,0.5]];portConstraint=eastwest;whiteSpace=wrap;html=1;" parent="aeAs8SqdMSBDvHF7y7z5-23" vertex="1">
          <mxGeometry y="476" width="160" height="26" as="geometry" />
        </mxCell>
        <mxCell id="aeAs8SqdMSBDvHF7y7z5-43" value="goToNextTask()" style="text;strokeColor=none;fillColor=none;align=left;verticalAlign=top;spacingLeft=4;spacingRight=4;overflow=hidden;rotatable=0;points=[[0,0.5],[1,0.5]];portConstraint=eastwest;whiteSpace=wrap;html=1;" parent="aeAs8SqdMSBDvHF7y7z5-23" vertex="1">
          <mxGeometry y="502" width="160" height="26" as="geometry" />
        </mxCell>
        <mxCell id="aeAs8SqdMSBDvHF7y7z5-44" value="onCopyForm()" style="text;strokeColor=none;fillColor=none;align=left;verticalAlign=top;spacingLeft=4;spacingRight=4;overflow=hidden;rotatable=0;points=[[0,0.5],[1,0.5]];portConstraint=eastwest;whiteSpace=wrap;html=1;" parent="aeAs8SqdMSBDvHF7y7z5-23" vertex="1">
          <mxGeometry y="528" width="160" height="26" as="geometry" />
        </mxCell>
        <mxCell id="aeAs8SqdMSBDvHF7y7z5-45" value="setEditForm()" style="text;strokeColor=none;fillColor=none;align=left;verticalAlign=top;spacingLeft=4;spacingRight=4;overflow=hidden;rotatable=0;points=[[0,0.5],[1,0.5]];portConstraint=eastwest;whiteSpace=wrap;html=1;" parent="aeAs8SqdMSBDvHF7y7z5-23" vertex="1">
          <mxGeometry y="554" width="160" height="26" as="geometry" />
        </mxCell>
        <mxCell id="aeAs8SqdMSBDvHF7y7z5-46" value="setStaticForm()" style="text;strokeColor=none;fillColor=none;align=left;verticalAlign=top;spacingLeft=4;spacingRight=4;overflow=hidden;rotatable=0;points=[[0,0.5],[1,0.5]];portConstraint=eastwest;whiteSpace=wrap;html=1;" parent="aeAs8SqdMSBDvHF7y7z5-23" vertex="1">
          <mxGeometry y="580" width="160" height="26" as="geometry" />
        </mxCell>
        <mxCell id="aeAs8SqdMSBDvHF7y7z5-47" value="updatePage()" style="text;strokeColor=none;fillColor=none;align=left;verticalAlign=top;spacingLeft=4;spacingRight=4;overflow=hidden;rotatable=0;points=[[0,0.5],[1,0.5]];portConstraint=eastwest;whiteSpace=wrap;html=1;" parent="aeAs8SqdMSBDvHF7y7z5-23" vertex="1">
          <mxGeometry y="606" width="160" height="26" as="geometry" />
        </mxCell>
        <mxCell id="aeAs8SqdMSBDvHF7y7z5-48" value="" style="endArrow=diamondThin;endFill=1;endSize=24;html=1;rounded=0;entryX=1;entryY=0.5;entryDx=0;entryDy=0;exitX=0;exitY=0.5;exitDx=0;exitDy=0;" parent="1" source="aeAs8SqdMSBDvHF7y7z5-7" target="aeAs8SqdMSBDvHF7y7z5-29" edge="1">
          <mxGeometry width="160" relative="1" as="geometry">
            <mxPoint x="390" y="1040" as="sourcePoint" />
            <mxPoint x="550" y="1040" as="targetPoint" />
          </mxGeometry>
        </mxCell>
        <mxCell id="bCVCQJ4ItA6XDc_331jL-8" value="&lt;span style=&quot;font-weight: 700; text-wrap: nowrap;&quot;&gt;FormContainer&lt;/span&gt;" style="shape=umlLifeline;perimeter=lifelinePerimeter;whiteSpace=wrap;html=1;container=1;dropTarget=0;collapsible=0;recursiveResize=0;outlineConnect=0;portConstraint=eastwest;newEdgeStyle={&quot;curved&quot;:0,&quot;rounded&quot;:0};" parent="1" vertex="1">
          <mxGeometry x="1320" y="240" width="135" height="1240" as="geometry" />
        </mxCell>
        <mxCell id="bCVCQJ4ItA6XDc_331jL-10" value="" style="html=1;points=[[0,0,0,0,5],[0,1,0,0,-5],[1,0,0,0,5],[1,1,0,0,-5]];perimeter=orthogonalPerimeter;outlineConnect=0;targetShapes=umlLifeline;portConstraint=eastwest;newEdgeStyle={&quot;curved&quot;:0,&quot;rounded&quot;:0};" parent="bCVCQJ4ItA6XDc_331jL-8" vertex="1">
          <mxGeometry x="60" y="80" width="10" height="80" as="geometry" />
        </mxCell>
        <mxCell id="bCVCQJ4ItA6XDc_331jL-12" value="" style="html=1;points=[[0,0,0,0,5],[0,1,0,0,-5],[1,0,0,0,5],[1,1,0,0,-5]];perimeter=orthogonalPerimeter;outlineConnect=0;targetShapes=umlLifeline;portConstraint=eastwest;newEdgeStyle={&quot;curved&quot;:0,&quot;rounded&quot;:0};" parent="bCVCQJ4ItA6XDc_331jL-8" vertex="1">
          <mxGeometry x="60" y="200" width="10" height="80" as="geometry" />
        </mxCell>
        <mxCell id="bCVCQJ4ItA6XDc_331jL-13" value="" style="html=1;points=[[0,0,0,0,5],[0,1,0,0,-5],[1,0,0,0,5],[1,1,0,0,-5]];perimeter=orthogonalPerimeter;outlineConnect=0;targetShapes=umlLifeline;portConstraint=eastwest;newEdgeStyle={&quot;curved&quot;:0,&quot;rounded&quot;:0};" parent="bCVCQJ4ItA6XDc_331jL-8" vertex="1">
          <mxGeometry x="60" y="320" width="10" height="80" as="geometry" />
        </mxCell>
        <mxCell id="bCVCQJ4ItA6XDc_331jL-18" value="" style="html=1;points=[[0,0,0,0,5],[0,1,0,0,-5],[1,0,0,0,5],[1,1,0,0,-5]];perimeter=orthogonalPerimeter;outlineConnect=0;targetShapes=umlLifeline;portConstraint=eastwest;newEdgeStyle={&quot;curved&quot;:0,&quot;rounded&quot;:0};" parent="bCVCQJ4ItA6XDc_331jL-8" vertex="1">
          <mxGeometry x="60" y="430" width="10" height="80" as="geometry" />
        </mxCell>
        <mxCell id="bCVCQJ4ItA6XDc_331jL-22" value="" style="html=1;points=[[0,0,0,0,5],[0,1,0,0,-5],[1,0,0,0,5],[1,1,0,0,-5]];perimeter=orthogonalPerimeter;outlineConnect=0;targetShapes=umlLifeline;portConstraint=eastwest;newEdgeStyle={&quot;curved&quot;:0,&quot;rounded&quot;:0};" parent="bCVCQJ4ItA6XDc_331jL-8" vertex="1">
          <mxGeometry x="60" y="560" width="10" height="80" as="geometry" />
        </mxCell>
        <mxCell id="bCVCQJ4ItA6XDc_331jL-28" value="" style="html=1;points=[[0,0,0,0,5],[0,1,0,0,-5],[1,0,0,0,5],[1,1,0,0,-5]];perimeter=orthogonalPerimeter;outlineConnect=0;targetShapes=umlLifeline;portConstraint=eastwest;newEdgeStyle={&quot;curved&quot;:0,&quot;rounded&quot;:0};" parent="bCVCQJ4ItA6XDc_331jL-8" vertex="1">
          <mxGeometry x="60" y="830" width="10" height="80" as="geometry" />
        </mxCell>
        <mxCell id="bCVCQJ4ItA6XDc_331jL-32" style="edgeStyle=orthogonalEdgeStyle;rounded=0;orthogonalLoop=1;jettySize=auto;html=1;curved=0;" parent="bCVCQJ4ItA6XDc_331jL-8" source="bCVCQJ4ItA6XDc_331jL-12" target="bCVCQJ4ItA6XDc_331jL-28" edge="1">
          <mxGeometry relative="1" as="geometry">
            <mxPoint x="140" y="870" as="targetPoint" />
            <mxPoint x="130" y="240" as="sourcePoint" />
            <Array as="points">
              <mxPoint x="265" y="260" />
              <mxPoint x="265" y="480" />
              <mxPoint x="280" y="480" />
              <mxPoint x="280" y="500" />
              <mxPoint x="265" y="500" />
              <mxPoint x="265" y="900" />
            </Array>
          </mxGeometry>
        </mxCell>
        <mxCell id="bCVCQJ4ItA6XDc_331jL-9" value="&lt;span style=&quot;font-weight: 700;&quot;&gt;PageRenderer&lt;/span&gt;" style="shape=umlLifeline;perimeter=lifelinePerimeter;whiteSpace=wrap;html=1;container=1;dropTarget=0;collapsible=0;recursiveResize=0;outlineConnect=0;portConstraint=eastwest;newEdgeStyle={&quot;curved&quot;:0,&quot;rounded&quot;:0};" parent="1" vertex="1">
          <mxGeometry x="1600" y="240" width="115" height="1240" as="geometry" />
        </mxCell>
        <mxCell id="bCVCQJ4ItA6XDc_331jL-21" style="edgeStyle=orthogonalEdgeStyle;rounded=0;orthogonalLoop=1;jettySize=auto;html=1;curved=0;" parent="bCVCQJ4ItA6XDc_331jL-9" source="bCVCQJ4ItA6XDc_331jL-11" target="bCVCQJ4ItA6XDc_331jL-16" edge="1">
          <mxGeometry relative="1" as="geometry">
            <mxPoint x="160" y="500" as="targetPoint" />
            <Array as="points">
              <mxPoint x="180" y="140" />
              <mxPoint x="180" y="500" />
            </Array>
          </mxGeometry>
        </mxCell>
        <mxCell id="bCVCQJ4ItA6XDc_331jL-11" value="" style="html=1;points=[[0,0,0,0,5],[0,1,0,0,-5],[1,0,0,0,5],[1,1,0,0,-5]];perimeter=orthogonalPerimeter;outlineConnect=0;targetShapes=umlLifeline;portConstraint=eastwest;newEdgeStyle={&quot;curved&quot;:0,&quot;rounded&quot;:0};" parent="bCVCQJ4ItA6XDc_331jL-9" vertex="1">
          <mxGeometry x="50" y="80" width="10" height="80" as="geometry" />
        </mxCell>
        <mxCell id="bCVCQJ4ItA6XDc_331jL-14" value="" style="html=1;points=[[0,0,0,0,5],[0,1,0,0,-5],[1,0,0,0,5],[1,1,0,0,-5]];perimeter=orthogonalPerimeter;outlineConnect=0;targetShapes=umlLifeline;portConstraint=eastwest;newEdgeStyle={&quot;curved&quot;:0,&quot;rounded&quot;:0};" parent="bCVCQJ4ItA6XDc_331jL-9" vertex="1">
          <mxGeometry x="50" y="200" width="10" height="80" as="geometry" />
        </mxCell>
        <mxCell id="bCVCQJ4ItA6XDc_331jL-16" value="" style="html=1;points=[[0,0,0,0,5],[0,1,0,0,-5],[1,0,0,0,5],[1,1,0,0,-5]];perimeter=orthogonalPerimeter;outlineConnect=0;targetShapes=umlLifeline;portConstraint=eastwest;newEdgeStyle={&quot;curved&quot;:0,&quot;rounded&quot;:0};" parent="bCVCQJ4ItA6XDc_331jL-9" vertex="1">
          <mxGeometry x="50" y="430" width="10" height="80" as="geometry" />
        </mxCell>
        <mxCell id="bCVCQJ4ItA6XDc_331jL-17" style="edgeStyle=orthogonalEdgeStyle;rounded=0;orthogonalLoop=1;jettySize=auto;html=1;curved=0;" parent="bCVCQJ4ItA6XDc_331jL-9" source="bCVCQJ4ItA6XDc_331jL-14" edge="1">
          <mxGeometry relative="1" as="geometry">
            <mxPoint x="55" y="440" as="targetPoint" />
            <Array as="points">
              <mxPoint x="120" y="260" />
              <mxPoint x="120" y="440" />
            </Array>
          </mxGeometry>
        </mxCell>
        <mxCell id="bCVCQJ4ItA6XDc_331jL-24" value="" style="html=1;points=[[0,0,0,0,5],[0,1,0,0,-5],[1,0,0,0,5],[1,1,0,0,-5]];perimeter=orthogonalPerimeter;outlineConnect=0;targetShapes=umlLifeline;portConstraint=eastwest;newEdgeStyle={&quot;curved&quot;:0,&quot;rounded&quot;:0};" parent="bCVCQJ4ItA6XDc_331jL-9" vertex="1">
          <mxGeometry x="50" y="680" width="10" height="80" as="geometry" />
        </mxCell>
        <mxCell id="bCVCQJ4ItA6XDc_331jL-19" style="edgeStyle=orthogonalEdgeStyle;rounded=0;orthogonalLoop=1;jettySize=auto;html=1;curved=0;" parent="1" source="bCVCQJ4ItA6XDc_331jL-16" target="bCVCQJ4ItA6XDc_331jL-18" edge="1">
          <mxGeometry relative="1" as="geometry">
            <Array as="points">
              <mxPoint x="1520" y="730" />
              <mxPoint x="1520" y="730" />
            </Array>
          </mxGeometry>
        </mxCell>
        <mxCell id="bCVCQJ4ItA6XDc_331jL-23" value="通知表单组件" style="text;html=1;align=center;verticalAlign=middle;resizable=0;points=[];autosize=1;strokeColor=none;fillColor=none;" parent="1" vertex="1">
          <mxGeometry x="1475" y="700" width="100" height="30" as="geometry" />
        </mxCell>
        <mxCell id="bCVCQJ4ItA6XDc_331jL-26" value="" style="shape=umlLifeline;perimeter=lifelinePerimeter;whiteSpace=wrap;html=1;container=1;dropTarget=0;collapsible=0;recursiveResize=0;outlineConnect=0;portConstraint=eastwest;newEdgeStyle={&quot;curved&quot;:0,&quot;rounded&quot;:0};participant=umlActor;" parent="1" vertex="1">
          <mxGeometry x="1140" y="240" width="30" height="1240" as="geometry" />
        </mxCell>
        <mxCell id="bCVCQJ4ItA6XDc_331jL-27" value="" style="html=1;points=[[0,0,0,0,5],[0,1,0,0,-5],[1,0,0,0,5],[1,1,0,0,-5]];perimeter=orthogonalPerimeter;outlineConnect=0;targetShapes=umlLifeline;portConstraint=eastwest;newEdgeStyle={&quot;curved&quot;:0,&quot;rounded&quot;:0};" parent="bCVCQJ4ItA6XDc_331jL-26" vertex="1">
          <mxGeometry x="10" y="80" width="10" height="1140" as="geometry" />
        </mxCell>
        <mxCell id="bCVCQJ4ItA6XDc_331jL-30" value="用户修改表单" style="text;html=1;align=center;verticalAlign=middle;resizable=0;points=[];autosize=1;strokeColor=none;fillColor=none;" parent="1" vertex="1">
          <mxGeometry x="1191" y="1080" width="100" height="30" as="geometry" />
        </mxCell>
        <mxCell id="bCVCQJ4ItA6XDc_331jL-31" value="" style="endArrow=open;endFill=1;endSize=12;html=1;rounded=0;" parent="1" source="bCVCQJ4ItA6XDc_331jL-27" target="bCVCQJ4ItA6XDc_331jL-28" edge="1">
          <mxGeometry width="160" relative="1" as="geometry">
            <mxPoint x="1165" y="1110" as="sourcePoint" />
            <mxPoint x="1310" y="1110" as="targetPoint" />
            <Array as="points">
              <mxPoint x="1240" y="1110" />
            </Array>
          </mxGeometry>
        </mxCell>
        <mxCell id="bCVCQJ4ItA6XDc_331jL-35" value="&lt;span style=&quot;font-size: 12px; text-align: center; background-color: rgb(251, 251, 251);&quot;&gt;判断是否为计算表单&lt;/span&gt;" style="html=1;align=left;spacingLeft=2;endArrow=block;rounded=0;edgeStyle=orthogonalEdgeStyle;curved=0;rounded=0;" parent="1" target="bCVCQJ4ItA6XDc_331jL-12" edge="1">
          <mxGeometry relative="1" as="geometry">
            <mxPoint x="1390" y="450" as="sourcePoint" />
            <Array as="points">
              <mxPoint x="1420" y="450" />
              <mxPoint x="1420" y="480" />
            </Array>
            <mxPoint x="1395" y="480" as="targetPoint" />
          </mxGeometry>
        </mxCell>
        <mxCell id="bCVCQJ4ItA6XDc_331jL-36" value="判断是否为计算表单" style="text;html=1;align=center;verticalAlign=middle;resizable=0;points=[];autosize=1;strokeColor=none;fillColor=none;" parent="1" vertex="1">
          <mxGeometry x="1460" y="1120" width="130" height="30" as="geometry" />
        </mxCell>
        <mxCell id="bCVCQJ4ItA6XDc_331jL-38" value="&lt;span style=&quot;font-size: 12px; text-align: center; background-color: rgb(251, 251, 251);&quot;&gt;解析schema&lt;/span&gt;" style="html=1;align=left;spacingLeft=2;endArrow=block;rounded=0;edgeStyle=orthogonalEdgeStyle;curved=0;rounded=0;" parent="1" target="bCVCQJ4ItA6XDc_331jL-10" edge="1">
          <mxGeometry relative="1" as="geometry">
            <mxPoint x="1390" y="340" as="sourcePoint" />
            <Array as="points">
              <mxPoint x="1420" y="340" />
              <mxPoint x="1420" y="370" />
            </Array>
            <mxPoint x="1395" y="370.02857142857147" as="targetPoint" />
          </mxGeometry>
        </mxCell>
        <mxCell id="bCVCQJ4ItA6XDc_331jL-40" value="&lt;span style=&quot;font-size: 12px; text-align: center; background-color: rgb(251, 251, 251);&quot;&gt;设置表单默认值&lt;/span&gt;" style="html=1;align=left;spacingLeft=2;endArrow=block;rounded=0;edgeStyle=orthogonalEdgeStyle;curved=0;rounded=0;" parent="1" target="bCVCQJ4ItA6XDc_331jL-13" edge="1">
          <mxGeometry relative="1" as="geometry">
            <mxPoint x="1390" y="585" as="sourcePoint" />
            <Array as="points">
              <mxPoint x="1420" y="585" />
              <mxPoint x="1420" y="615" />
            </Array>
            <mxPoint x="1395" y="615.0285714285715" as="targetPoint" />
          </mxGeometry>
        </mxCell>
        <mxCell id="bCVCQJ4ItA6XDc_331jL-42" value="&lt;span style=&quot;font-size: 12px; text-align: center; background-color: rgb(251, 251, 251);&quot;&gt;表单就绪&lt;/span&gt;" style="html=1;align=left;spacingLeft=2;endArrow=block;rounded=0;edgeStyle=orthogonalEdgeStyle;curved=0;rounded=0;" parent="1" target="bCVCQJ4ItA6XDc_331jL-18" edge="1">
          <mxGeometry relative="1" as="geometry">
            <mxPoint x="1390" y="690" as="sourcePoint" />
            <Array as="points">
              <mxPoint x="1420" y="690" />
              <mxPoint x="1420" y="720" />
            </Array>
            <mxPoint x="1395" y="720.0285714285715" as="targetPoint" />
          </mxGeometry>
        </mxCell>
        <mxCell id="bCVCQJ4ItA6XDc_331jL-44" value="&lt;span style=&quot;font-size: 12px; text-align: center; background-color: rgb(251, 251, 251);&quot;&gt;加载数据源&lt;/span&gt;" style="html=1;align=left;spacingLeft=2;endArrow=block;rounded=0;edgeStyle=orthogonalEdgeStyle;curved=0;rounded=0;" parent="1" edge="1" target="bCVCQJ4ItA6XDc_331jL-11">
          <mxGeometry relative="1" as="geometry">
            <mxPoint x="1660" y="340" as="sourcePoint" />
            <Array as="points">
              <mxPoint x="1690" y="340" />
              <mxPoint x="1690" y="370" />
            </Array>
            <mxPoint x="1665" y="370.02857142857147" as="targetPoint" />
          </mxGeometry>
        </mxCell>
        <mxCell id="bCVCQJ4ItA6XDc_331jL-45" value="&lt;span style=&quot;font-size: 12px; text-align: center; background-color: rgb(251, 251, 251);&quot;&gt;调用onFormFieldChange&lt;/span&gt;" style="html=1;align=left;spacingLeft=2;endArrow=block;rounded=0;edgeStyle=orthogonalEdgeStyle;curved=0;rounded=0;" parent="1" target="bCVCQJ4ItA6XDc_331jL-28" edge="1">
          <mxGeometry relative="1" as="geometry">
            <mxPoint x="1390" y="1089.97" as="sourcePoint" />
            <Array as="points">
              <mxPoint x="1420" y="1090" />
              <mxPoint x="1420" y="1120" />
            </Array>
            <mxPoint x="1395" y="1119.9985714285715" as="targetPoint" />
          </mxGeometry>
        </mxCell>
        <mxCell id="bCVCQJ4ItA6XDc_331jL-46" value="&lt;span style=&quot;font-size: 12px; text-align: center; background-color: rgb(251, 251, 251);&quot;&gt;调用onFormReady&lt;/span&gt;" style="html=1;align=left;spacingLeft=2;endArrow=block;rounded=0;edgeStyle=orthogonalEdgeStyle;curved=0;rounded=0;" parent="1" target="bCVCQJ4ItA6XDc_331jL-22" edge="1">
          <mxGeometry x="0.0025" relative="1" as="geometry">
            <mxPoint x="1390" y="820" as="sourcePoint" />
            <Array as="points">
              <mxPoint x="1420" y="820" />
              <mxPoint x="1420" y="850" />
            </Array>
            <mxPoint x="1395" y="850.0285714285715" as="targetPoint" />
            <mxPoint as="offset" />
          </mxGeometry>
        </mxCell>
        <mxCell id="u2fiPTeOg2q4hX7yK24j-3" value="&lt;span style=&quot;font-size: 12px; text-align: center; background-color: rgb(251, 251, 251);&quot;&gt;加载动作引擎&lt;/span&gt;" style="html=1;align=left;spacingLeft=2;endArrow=block;rounded=0;edgeStyle=orthogonalEdgeStyle;curved=0;rounded=0;" edge="1" parent="1">
          <mxGeometry relative="1" as="geometry">
            <mxPoint x="1660" y="460" as="sourcePoint" />
            <Array as="points">
              <mxPoint x="1690" y="490" />
            </Array>
            <mxPoint x="1665" y="490" as="targetPoint" />
          </mxGeometry>
        </mxCell>
        <mxCell id="u2fiPTeOg2q4hX7yK24j-5" value="&lt;span style=&quot;font-size: 12px; text-align: center; background-color: rgb(251, 251, 251);&quot;&gt;调用onMounted&lt;/span&gt;" style="html=1;align=left;spacingLeft=2;endArrow=block;rounded=0;edgeStyle=orthogonalEdgeStyle;curved=0;rounded=0;" edge="1" parent="1">
          <mxGeometry relative="1" as="geometry">
            <mxPoint x="1660" y="940" as="sourcePoint" />
            <Array as="points">
              <mxPoint x="1690" y="970" />
            </Array>
            <mxPoint x="1664.9999999999995" y="970" as="targetPoint" />
          </mxGeometry>
        </mxCell>
      </root>
    </mxGraphModel>
  </diagram>
</mxfile>
